<svg width="193" height="54" viewBox="0 0 193 54" fill="none" xmlns="http://www.w3.org/2000/svg">
<g clip-path="url(#clip0)">
<path d="M47.9985 10.5931H56.781C58.8587 10.5931 60.4759 11.1174 61.6326 12.1659C62.7894 13.2145 63.3664 14.6764 63.3664 16.5572C63.3664 18.4351 62.7866 19.8998 61.6326 20.9484C60.4759 21.9969 58.8587 22.5212 56.781 22.5212H52.2261V29.703H47.9985V10.5931ZM56.2373 19.32C58.351 19.32 59.4079 18.4074 59.4079 16.5821C59.4079 15.6417 59.1444 14.9482 58.6229 14.4961C58.0986 14.0439 57.3052 13.8192 56.2373 13.8192H52.2261V19.32H56.2373Z" fill="white"/>
<path d="M67.9183 29.0623C66.8531 28.4936 66.0292 27.6891 65.4522 26.6489C64.8725 25.6087 64.584 24.3853 64.584 22.9761C64.584 21.567 64.8725 20.3436 65.4522 19.3034C66.0292 18.2632 66.8531 17.4642 67.9183 16.9039C68.9835 16.3436 70.2207 16.0634 71.6327 16.0634C73.0419 16.0634 74.279 16.3436 75.347 16.9039C76.4122 17.4642 77.2361 18.2632 77.8131 19.3034C78.3901 20.3436 78.6814 21.567 78.6814 22.9761C78.6814 24.3853 78.3929 25.6087 77.8131 26.6489C77.2361 27.6891 76.4122 28.4908 75.347 29.0623C74.2818 29.6309 73.0419 29.9166 71.6327 29.9166C70.2235 29.9166 68.9863 29.6337 67.9183 29.0623ZM74.6147 22.9789C74.6147 21.6973 74.3567 20.7375 73.8435 20.1051C73.3276 19.4726 72.5925 19.1564 71.6354 19.1564C69.6465 19.1564 68.6534 20.4296 68.6534 22.9789C68.6534 25.5254 69.6465 26.8015 71.6354 26.8015C73.6188 26.8015 74.6147 25.5254 74.6147 22.9789Z" fill="white"/>
<path d="M81.1729 29.7003V10.5931H85.2645V29.7003H81.1729Z" fill="white"/>
<path d="M97.6252 16.4185H101.636L93.614 34.5769H89.4669L92.0134 28.9679L86.5376 16.4185H90.7929L94.155 24.8736L97.6252 16.4185Z" fill="white"/>
<path d="M119.795 29.7003H115.187L111.881 23.6031C111.609 23.1343 111.284 22.7958 110.904 22.5878C110.524 22.3797 110.047 22.2771 109.467 22.2771H107.381V29.703H103.207V10.5931H111.989C114.23 10.5931 115.922 11.0869 117.071 12.0689C118.219 13.0536 118.791 14.4767 118.791 16.338C118.791 17.7833 118.389 18.9955 117.584 19.9691C116.78 20.9456 115.645 21.5864 114.183 21.8943C115.176 22.1467 116.017 22.8624 116.705 24.0358L119.795 29.7003ZM113.995 18.4379C114.535 18.0135 114.807 17.3505 114.807 16.4462C114.807 15.5252 114.535 14.8567 113.995 14.4406C113.454 14.0245 112.577 13.8165 111.365 13.8165H107.326V19.0732H111.365C112.577 19.0759 113.454 18.8623 113.995 18.4379Z" fill="white"/>
<path d="M124.563 29.0623C123.498 28.4936 122.674 27.6891 122.097 26.6489C121.52 25.6087 121.229 24.3853 121.229 22.9761C121.229 21.567 121.517 20.3436 122.097 19.3034C122.674 18.2632 123.498 17.4642 124.563 16.9039C125.628 16.3436 126.865 16.0634 128.277 16.0634C129.686 16.0634 130.924 16.3436 131.989 16.9039C133.054 17.4642 133.878 18.2632 134.455 19.3034C135.032 20.3436 135.323 21.567 135.323 22.9761C135.323 24.3853 135.035 25.6087 134.455 26.6489C133.875 27.6891 133.054 28.4908 131.989 29.0623C130.924 29.6309 129.686 29.9166 128.277 29.9166C126.868 29.9166 125.631 29.6337 124.563 29.0623ZM131.259 22.9789C131.259 21.6973 131.001 20.7375 130.488 20.1051C129.972 19.4726 129.237 19.1564 128.28 19.1564C126.291 19.1564 125.298 20.4296 125.298 22.9789C125.298 25.5254 126.291 26.8015 128.28 26.8015C130.263 26.8015 131.259 25.5254 131.259 22.9789Z" fill="white"/>
<path d="M139.038 28.0747C137.792 26.8458 137.168 25.1759 137.168 23.0594C137.168 21.6668 137.465 20.4435 138.061 19.3866C138.658 18.3297 139.498 17.5114 140.583 16.9344C141.667 16.3574 142.921 16.0662 144.35 16.0662C145.326 16.0662 146.264 16.216 147.168 16.5128C148.073 16.8096 148.802 17.2118 149.362 17.7195L148.278 20.5101C147.754 20.094 147.179 19.775 146.558 19.5475C145.934 19.3228 145.323 19.2091 144.73 19.2091C143.665 19.2091 142.838 19.5253 142.25 20.1578C141.662 20.7903 141.368 21.7306 141.368 22.9761C141.368 24.2217 141.662 25.1676 142.25 25.8084C142.838 26.4492 143.665 26.771 144.73 26.771C145.326 26.771 145.937 26.6572 146.558 26.4325C147.182 26.2078 147.754 25.8861 148.278 25.47L149.362 28.2883C148.766 28.7932 148.009 29.1926 147.085 29.4811C146.164 29.7696 145.188 29.9139 144.158 29.9139C141.992 29.9166 140.283 29.3036 139.038 28.0747Z" fill="white"/>
<path d="M165.407 29.7003H160.392L155.296 23.764V29.7003H151.205V10.5931H155.296V22.0857L160.201 16.4212H165.08L159.496 22.7625L165.407 29.7003Z" fill="white"/>
<path d="M178.173 23.8194H169.499C169.627 24.8846 169.973 25.6586 170.542 26.1357C171.111 26.6156 171.921 26.8542 172.966 26.8542C173.652 26.8542 174.334 26.7404 175.014 26.5157C175.691 26.291 176.309 25.9693 176.869 25.5532L177.954 28.2911C177.305 28.7959 176.514 29.1954 175.582 29.4839C174.65 29.7724 173.715 29.9166 172.778 29.9166C170.536 29.9166 168.769 29.298 167.48 28.0608C166.187 26.8236 165.541 25.1371 165.541 23.0066C165.541 21.6529 165.821 20.449 166.381 19.4032C166.941 18.3547 167.718 17.5391 168.711 16.951C169.704 16.363 170.833 16.0689 172.098 16.0689C173.96 16.0689 175.435 16.6737 176.528 17.8859C177.621 19.0953 178.168 20.7403 178.168 22.818V23.8194H178.173ZM170.356 19.6307C169.896 20.1273 169.61 20.8457 169.502 21.7861H174.733C174.678 20.8291 174.439 20.1051 174.015 19.6168C173.591 19.1286 172.989 18.8845 172.212 18.8845C171.435 18.8873 170.817 19.1342 170.356 19.6307Z" fill="white"/>
<path d="M189.041 26.8264L188.825 29.8085C188.301 29.8806 187.776 29.9166 187.252 29.9166C185.23 29.9166 183.751 29.4728 182.822 28.5879C181.89 27.703 181.427 26.3576 181.427 24.549V19.456H178.905V16.3935H181.427V12.4905H185.518V16.3935H188.853V19.456H185.518V24.524C185.518 26.1135 186.259 26.9096 187.74 26.9096C188.156 26.9096 188.589 26.8819 189.041 26.8264Z" fill="white"/>
<path d="M23.0381 10.1853C22.7329 10.471 22.5193 10.6957 22.4971 10.7096C21.6594 11.6084 20.9659 12.4822 20.4333 13.2117C19.8785 12.8317 19.3764 12.5099 19.2294 12.4156C17.9006 11.6139 16.5664 10.8178 15.2459 9.99947C14.6995 9.66382 14.1225 9.48074 13.4734 9.53899C13.1294 9.57505 12.8159 9.67769 12.5163 9.85245C11.1294 10.6541 9.75069 11.4586 8.3637 12.2603C8.06411 12.435 7.8089 12.6542 7.60363 12.9232C7.31236 13.3088 7.11541 13.7471 7.11541 14.2298C7.10154 15.9358 7.10709 17.6446 7.10709 19.3506C7.10709 19.517 7.12096 19.6945 7.16534 19.861C7.32623 20.524 7.68407 21.0427 8.26661 21.4005C9.63141 22.2244 10.9879 23.0483 12.3527 23.8749C12.7188 24.0941 13.1044 24.2411 13.5261 24.2827C14.0504 24.3326 14.533 24.2328 14.9852 23.9692C15.074 23.911 15.1683 23.861 15.2543 23.8C14.1391 24.6322 12.9047 25.8722 11.6287 27.7252C9.27079 26.3549 6.92123 24.9901 4.56612 23.6169C4.003 23.2896 3.61742 22.8069 3.42879 22.1717C3.36221 21.9526 3.33447 21.7334 3.33447 21.5087C3.34279 18.4074 3.33447 15.3061 3.34279 12.2048C3.34279 11.3282 3.7367 10.6652 4.51064 10.2214C5.74506 9.51402 6.96839 8.78447 8.19449 8.06878C9.66747 7.20885 11.1432 6.34059 12.6162 5.47788C12.68 5.43905 12.7521 5.40853 12.8187 5.38079C12.8908 5.35028 12.9491 5.31977 13.0212 5.28925C13.0933 5.25874 13.1821 5.231 13.257 5.20881C13.3818 5.17274 13.5122 5.16442 13.637 5.15887C13.8784 5.145 14.1336 5.145 14.3666 5.18939C14.3971 5.19771 14.5552 5.23932 14.6079 5.26151C14.7688 5.33364 14.9353 5.40021 15.0962 5.48898C15.7896 5.90508 16.4887 6.31285 17.1905 6.7234C18.9964 7.79138 20.805 8.84272 22.6081 9.91348C22.6358 9.93012 22.805 10.0383 23.0381 10.1853Z" fill="white"/>
<path d="M41.2933 21.9304C41.2933 21.947 41.2933 21.9636 41.2933 21.9803C41.2933 22.0275 41.2933 22.0746 41.2933 22.1218C41.2933 22.1967 41.2933 22.2716 41.2933 22.3492C41.2933 22.4491 41.2933 22.5517 41.2933 22.6516C41.2933 22.7737 41.2933 22.8985 41.2933 23.0205C41.2933 23.162 41.2933 23.3063 41.2933 23.4477C41.2933 23.6086 41.2933 23.7667 41.2933 23.9276C41.2933 24.1024 41.2933 24.2744 41.2933 24.4491C41.2933 24.635 41.2933 24.8181 41.2933 25.0039C41.2933 25.1981 41.2933 25.3895 41.2933 25.5837C41.2933 25.7806 41.2933 25.9804 41.2933 26.1773C41.2933 26.3771 41.2933 26.5796 41.2933 26.7793C41.2933 26.979 41.2933 27.1815 41.2933 27.3812C41.2933 27.5782 41.2933 27.7751 41.2933 27.9749C41.2933 28.1663 41.2933 28.3577 41.2933 28.5491C41.2933 28.7322 41.2933 28.9152 41.2933 29.0983C41.2933 29.2703 41.2933 29.4395 41.2933 29.6115C41.2933 29.7669 41.2933 29.925 41.2933 30.0803C41.2933 30.219 41.2933 30.3577 41.2933 30.4992C41.2933 30.6185 41.2933 30.7378 41.2933 30.857C41.2933 30.9541 41.2933 31.0484 41.2933 31.1455C41.2933 31.2149 41.2933 31.287 41.2933 31.3563C41.2933 31.398 41.2933 31.4396 41.2933 31.4812C41.2933 31.6865 41.2906 31.8945 41.2434 32.097C41.0964 32.7322 40.7552 33.2343 40.1921 33.57C39.2073 34.1692 38.2004 34.7378 37.2017 35.3148C35.5096 36.2996 33.823 37.2788 32.1309 38.2552C32.0948 38.2774 32.0588 38.2996 32.0227 38.3135C32.0005 38.3274 31.9783 38.3357 31.9561 38.344C31.8757 38.3745 31.8036 38.4023 31.7287 38.4245C31.6621 38.4466 31.5983 38.4605 31.54 38.4688C31.0074 38.5992 30.5414 38.541 30.2335 38.4688C30.203 38.4688 30.1752 38.4605 30.1447 38.455C30.1003 38.4411 30.0559 38.4245 30.0199 38.4189C29.9394 38.3884 29.8812 38.369 29.8507 38.3523C29.8007 38.3301 29.748 38.3024 29.6981 38.2719C27.9699 37.2733 26.239 36.2663 24.5108 35.2649C23.8478 34.8793 23.182 34.4993 22.519 34.1109C23.5926 31.8418 24.0447 30.0026 24.1529 28.5297C24.2195 29.0761 24.2916 30.0859 24.4081 30.3133C24.6273 30.7516 25.0656 31.1206 25.4872 31.3674C26.8797 32.1691 28.2667 32.9874 29.662 33.7891C30.1142 34.0443 30.6107 34.147 31.135 34.1026C31.5594 34.0721 31.9367 33.914 32.2946 33.7004C33.5872 32.9209 34.8855 32.1525 36.1837 31.3813C36.7967 31.0151 37.2128 30.4909 37.3793 29.7835C37.4236 29.5949 37.4458 29.4035 37.4458 29.2148C37.4458 27.5865 37.4542 25.9693 37.4375 24.341C37.4292 23.4061 37.0297 22.671 36.2031 22.1967C34.891 21.431 33.5761 20.6654 32.2557 19.897C32.5553 19.3506 32.9187 18.6044 33.2044 17.7805C33.2488 17.664 33.4513 17.1397 33.6788 16.2992C35.6788 17.4587 37.6705 18.6182 39.6678 19.7805C40.0034 19.9692 40.3391 20.1522 40.6082 20.438C41.0159 20.8596 41.2573 21.3478 41.2933 21.9304Z" fill="white"/>
<path d="M32.4584 6.77611C32.4584 6.77611 25.235 6.26569 19.9006 15.3116C19.9006 15.3116 15.0628 16.0634 12.9546 22.2133C12.9546 22.2133 16.2667 21.2951 20.3889 23.3728V23.3645C26.0006 26.0996 27.1879 31.0762 27.1879 31.0762C31.7844 26.4797 30.3253 21.8028 30.3253 21.8028C36.0979 13.037 32.4584 6.77611 32.4584 6.77611ZM26.6359 16.1161C25.4541 15.3782 25.088 13.8248 25.8342 12.6348C26.5637 11.453 28.1255 11.0952 29.3072 11.8331C30.4889 12.571 30.8551 14.1327 30.1172 15.3061C29.3793 16.4961 27.8176 16.854 26.6359 16.1161Z" fill="white"/>
<path d="M14.1863 35.3009C14.1863 35.3009 13.2598 28.9458 20.35 26.0941C20.35 26.0941 20.8854 31.2315 16.9963 33.8085C16.9935 33.8113 14.9796 34.9126 14.1863 35.3009Z" fill="white"/>
<path d="M9.15968 47.4711L8.41903 45.754H4.92936L4.18871 47.4711H3.39258L6.333 40.783H7.00707L9.94749 47.4711H9.15968ZM5.20399 45.1104H8.14441L6.6742 41.6873L5.20399 45.1104Z" fill="white"/>
<path d="M10.96 47.4704V40.7823H11.7284V47.4704H10.96Z" fill="white"/>
<path d="M13.293 47.4704V40.7823H14.0614V47.4704H13.293Z" fill="white"/>
<path d="M15.5981 45.2623V44.6271H18.2528V45.2623H15.5981Z" fill="white"/>
<path d="M19.7148 40.8489H20.6441V41.7116H19.7148V40.8489ZM19.7925 47.4704V42.8517H20.5609V47.4704H19.7925Z" fill="white"/>
<path d="M26.1088 44.5688V47.4704H25.3404V44.616C25.3404 44.186 25.2572 43.8725 25.0879 43.6756C24.9215 43.4786 24.6524 43.3816 24.2863 43.3816C23.8618 43.3816 23.5234 43.5119 23.271 43.7699C23.0186 44.0279 22.891 44.3802 22.891 44.8212V47.4676H22.1226V42.8517H22.8826V43.6118C23.0352 43.3261 23.246 43.1097 23.5179 42.9627C23.7897 42.8129 24.1004 42.7408 24.4472 42.7408C25.554 42.738 26.1088 43.3483 26.1088 44.5688Z" fill="white"/>
<path d="M27.6177 45.2623V44.6271H30.2724V45.2623H27.6177Z" fill="white"/>
<path d="M32.7137 47.2429C32.3809 47.046 32.1257 46.7658 31.9453 46.4024C31.765 46.039 31.6763 45.6174 31.6763 45.1375C31.6763 44.6576 31.7678 44.2359 31.9453 43.8698C32.1257 43.5064 32.3809 43.2262 32.7137 43.0293C33.0466 42.8323 33.4294 42.7352 33.8677 42.7352C34.3032 42.7352 34.6888 42.8323 35.0245 43.0293C35.3601 43.2262 35.6181 43.5064 35.7984 43.8698C35.9787 44.2332 36.0675 44.6548 36.0675 45.1375C36.0675 45.6202 35.9759 46.039 35.7984 46.4024C35.6209 46.7658 35.3601 47.046 35.0245 47.2429C34.6888 47.4399 34.3032 47.537 33.8677 47.537C33.4322 47.537 33.0466 47.4399 32.7137 47.2429ZM34.9163 46.4523C35.1604 46.1528 35.2824 45.7145 35.2824 45.1375C35.2824 44.5744 35.1604 44.1388 34.9135 43.8337C34.6666 43.5258 34.3199 43.3732 33.8705 43.3732C33.4211 43.3732 33.0744 43.5258 32.8275 43.8337C32.5806 44.1416 32.4585 44.5744 32.4585 45.1375C32.4585 45.7061 32.5806 46.1417 32.8247 46.4468C33.0688 46.7492 33.4183 46.9017 33.8733 46.9017C34.3226 46.9017 34.6722 46.7519 34.9163 46.4523Z" fill="white"/>
<path d="M41.3324 44.5688V47.4704H40.564V44.616C40.564 44.186 40.4808 43.8725 40.3116 43.6756C40.1451 43.4786 39.8761 43.3816 39.5099 43.3816C39.0855 43.3816 38.7471 43.5119 38.4946 43.7699C38.2422 44.0279 38.1146 44.3802 38.1146 44.8212V47.4676H37.3462V42.8517H38.1063V43.6118C38.2588 43.3261 38.4697 43.1097 38.7415 42.9627C39.0134 42.8129 39.324 42.7408 39.6708 42.7408C40.7776 42.738 41.3324 43.3483 41.3324 44.5688Z" fill="white"/>
<path d="M46.7389 45.279H43.363C43.3879 45.8171 43.535 46.2221 43.7985 46.4967C44.0648 46.7714 44.4393 46.9101 44.9275 46.9101C45.4656 46.9101 45.9594 46.727 46.406 46.3608L46.6612 46.9212C46.4587 47.1098 46.2007 47.2624 45.8845 47.3705C45.5683 47.4815 45.2465 47.537 44.9164 47.537C44.1952 47.537 43.6293 47.3262 43.2132 46.9017C42.7998 46.4773 42.5918 45.892 42.5918 45.1458C42.5918 44.6715 42.6833 44.2526 42.8664 43.8892C43.0495 43.5258 43.3075 43.2429 43.6404 43.0404C43.9732 42.8379 44.3505 42.738 44.7749 42.738C45.388 42.738 45.8679 42.9377 46.2174 43.3399C46.5641 43.7422 46.7389 44.2942 46.7389 44.996V45.279ZM43.8124 43.7144C43.5682 43.9669 43.424 44.3247 43.3796 44.7852H46.0648C46.051 44.3164 45.9344 43.9585 45.7153 43.7089C45.4934 43.4592 45.1827 43.3344 44.786 43.3344C44.381 43.3344 44.0565 43.462 43.8124 43.7144Z" fill="white"/>
<path d="M53.9759 43.0404C54.2866 43.2429 54.5252 43.5258 54.6972 43.8892C54.8692 44.2526 54.9524 44.6742 54.9524 45.1569C54.9524 45.6396 54.8664 46.0557 54.6972 46.4135C54.5252 46.7714 54.2866 47.0488 53.9815 47.2429C53.6736 47.4399 53.3157 47.537 52.9052 47.537C52.5446 47.537 52.2311 47.4565 51.962 47.3012C51.6929 47.1431 51.4904 46.9184 51.349 46.6271V49.1792H50.5806V42.8517H51.349V43.6479C51.4877 43.3566 51.6929 43.1319 51.962 42.9738C52.2311 42.8157 52.5446 42.738 52.9052 42.738C53.3074 42.738 53.6652 42.8379 53.9759 43.0404ZM53.7956 46.4468C54.0425 46.1444 54.1646 45.7145 54.1646 45.1569C54.1646 44.5993 54.0425 44.1666 53.7956 43.8531C53.5487 43.5397 53.202 43.3843 52.7526 43.3843C52.3032 43.3843 51.9565 43.5369 51.7151 43.8393C51.471 44.1416 51.349 44.5771 51.349 45.1375C51.349 45.7006 51.471 46.1361 51.7151 46.4413C51.9592 46.7492 52.3032 46.9017 52.7526 46.9017C53.202 46.9017 53.5487 46.7492 53.7956 46.4468Z" fill="white"/>
<path d="M56.2339 47.4704V40.7823H57.0023V47.4704H56.2339Z" fill="white"/>
<path d="M61.7571 43.1874C62.0456 43.487 62.1898 43.9447 62.1898 44.5577V47.4704H61.4408V46.6826C61.3215 46.9544 61.1385 47.1653 60.8916 47.3123C60.6447 47.4621 60.3617 47.5342 60.0372 47.5342C59.7404 47.5342 59.4658 47.4732 59.2161 47.3539C58.9664 47.2346 58.7695 47.0654 58.6225 46.8518C58.4782 46.6382 58.4033 46.3996 58.4033 46.1417C58.4033 45.7949 58.4921 45.5231 58.6696 45.3317C58.8472 45.1403 59.1384 44.9988 59.5434 44.9156C59.9484 44.8323 60.5115 44.788 61.2328 44.788H61.4408V44.4745C61.4408 44.0889 61.3604 43.8088 61.205 43.634C61.0469 43.4592 60.7917 43.3732 60.4366 43.3732C59.904 43.3732 59.377 43.5369 58.8527 43.867L58.5975 43.3067C58.8388 43.1347 59.1273 42.9987 59.4658 42.8933C59.8042 42.7879 60.1315 42.738 60.4477 42.738C61.0331 42.738 61.4713 42.8878 61.7571 43.1874ZM61.0747 46.5467C61.3188 46.2915 61.4408 45.9614 61.4408 45.5564V45.2817H61.2688C60.7113 45.2817 60.2896 45.3039 59.9984 45.3539C59.7071 45.401 59.5018 45.4815 59.377 45.5896C59.2522 45.7006 59.1911 45.8643 59.1911 46.0779C59.1911 46.3248 59.2799 46.5272 59.4602 46.6909C59.6405 46.8518 59.8652 46.9323 60.1371 46.9323C60.5199 46.9295 60.8306 46.8019 61.0747 46.5467Z" fill="white"/>
<path d="M66.1735 46.8934L66.1347 47.5009C65.9877 47.5259 65.8323 47.5397 65.6604 47.5397C65.1028 47.5397 64.6839 47.3955 64.4038 47.1042C64.1236 46.813 63.9821 46.408 63.9821 45.8892V43.462H63.0806V42.8545H63.9821V41.4509H64.7505V42.8545H66.0598V43.462H64.7505V45.8337C64.7505 46.5605 65.0861 46.9239 65.7547 46.9239C65.8961 46.9211 66.0348 46.9101 66.1735 46.8934Z" fill="white"/>
<path d="M68.2124 42.8517H69.5217V43.4592H68.2124V47.4704H67.444V43.4592H66.5425V42.8517H67.444V42.6991C67.444 42.0861 67.5966 41.6201 67.9045 41.3038C68.2124 40.9876 68.684 40.8101 69.322 40.7712L69.702 40.7518L69.7603 41.3482L69.3248 41.376C68.9392 41.4009 68.6563 41.5091 68.4815 41.7033C68.304 41.8975 68.2152 42.1915 68.2152 42.591V42.8517H68.2124Z" fill="white"/>
<path d="M71.1468 47.2429C70.814 47.046 70.5588 46.7658 70.3785 46.4024C70.1981 46.039 70.1094 45.6174 70.1094 45.1375C70.1094 44.6576 70.2009 44.2359 70.3785 43.8698C70.5588 43.5064 70.814 43.2262 71.1468 43.0293C71.4797 42.8323 71.8625 42.7352 72.298 42.7352C72.7336 42.7352 73.1191 42.8323 73.4548 43.0293C73.7904 43.2262 74.0484 43.5064 74.2287 43.8698C74.409 44.2332 74.4978 44.6548 74.4978 45.1375C74.4978 45.6202 74.4063 46.039 74.2287 46.4024C74.0484 46.7658 73.7904 47.046 73.4548 47.2429C73.1191 47.4399 72.7336 47.537 72.298 47.537C71.8653 47.537 71.4797 47.4399 71.1468 47.2429ZM73.3494 46.4523C73.5935 46.1528 73.7156 45.7145 73.7156 45.1375C73.7156 44.5744 73.5935 44.1388 73.3466 43.8337C73.0997 43.5258 72.753 43.3732 72.3036 43.3732C71.8542 43.3732 71.5075 43.5258 71.2606 43.8337C71.0137 44.1416 70.8916 44.5744 70.8916 45.1375C70.8916 45.7061 71.0137 46.1417 71.2578 46.4468C71.5019 46.7492 71.8514 46.9017 72.3064 46.9017C72.7558 46.9017 73.1053 46.7519 73.3494 46.4523Z" fill="white"/>
<path d="M78.401 43.401L77.8989 43.4481C77.4246 43.4925 77.0806 43.6423 76.8698 43.8947C76.6589 44.1472 76.5535 44.4606 76.5535 44.8323V47.4704H75.7852V42.8517H76.5341V43.659C76.7921 43.1208 77.3025 42.8212 78.0626 42.7574L78.3372 42.738L78.401 43.401Z" fill="white"/>
<path d="M85.9406 44.5688V47.4704H85.1723V44.6049C85.1723 44.1805 85.0974 43.8725 84.9503 43.6756C84.8005 43.4786 84.562 43.3816 84.2346 43.3816C83.8491 43.3816 83.5439 43.5119 83.3248 43.7699C83.1029 44.0279 82.9919 44.383 82.9919 44.8323V47.4704H82.2235V44.6049C82.2235 44.1749 82.1486 43.8642 81.996 43.67C81.8435 43.4759 81.6049 43.3816 81.2748 43.3816C80.8892 43.3816 80.5869 43.5119 80.3649 43.7699C80.143 44.0279 80.0321 44.383 80.0321 44.8323V47.4704H79.2637V42.8517H80.0237V43.5813C80.1624 43.3094 80.3566 43.1014 80.6035 42.9544C80.8504 42.8101 81.1361 42.7352 81.4579 42.7352C82.1736 42.7352 82.6424 43.0376 82.8698 43.6451C83.003 43.3594 83.2055 43.1374 83.4773 42.9765C83.7492 42.8157 84.0599 42.7352 84.4066 42.7352C85.4275 42.738 85.9406 43.3483 85.9406 44.5688Z" fill="white"/>
<path d="M91.0811 42.8517H92.3904V43.4592H91.0811V47.4704H90.3127V43.4592H89.4111V42.8517H90.3127V42.6991C90.3127 42.0861 90.4652 41.6201 90.7732 41.3038C91.0811 40.9876 91.5526 40.8101 92.1907 40.7712L92.5707 40.7518L92.629 41.3482L92.1934 41.376C91.8079 41.4009 91.5249 41.5091 91.3501 41.7033C91.1726 41.8975 91.0838 42.1915 91.0838 42.591V42.8517H91.0811Z" fill="white"/>
<path d="M94.0184 47.2429C93.6855 47.046 93.4303 46.7658 93.25 46.4024C93.0697 46.039 92.981 45.6174 92.981 45.1375C92.981 44.6576 93.0725 44.2359 93.25 43.8698C93.4303 43.5064 93.6855 43.2262 94.0184 43.0293C94.3513 42.8323 94.7341 42.7352 95.1696 42.7352C95.6051 42.7352 95.9907 42.8323 96.3264 43.0293C96.662 43.2262 96.92 43.5064 97.1003 43.8698C97.2806 44.2332 97.3694 44.6548 97.3694 45.1375C97.3694 45.6202 97.2779 46.039 97.1003 46.4024C96.92 46.7658 96.662 47.046 96.3264 47.2429C95.9907 47.4399 95.6051 47.537 95.1696 47.537C94.7341 47.537 94.3485 47.4399 94.0184 47.2429ZM96.2182 46.4523C96.4623 46.1528 96.5844 45.7145 96.5844 45.1375C96.5844 44.5744 96.4623 44.1388 96.2154 43.8337C95.9685 43.5258 95.6218 43.3732 95.1724 43.3732C94.723 43.3732 94.3763 43.5258 94.1294 43.8337C93.8825 44.1416 93.7604 44.5744 93.7604 45.1375C93.7604 45.7061 93.8825 46.1417 94.1266 46.4468C94.3707 46.7492 94.7202 46.9017 95.1752 46.9017C95.6246 46.9017 95.9741 46.7519 96.2182 46.4523Z" fill="white"/>
<path d="M101.27 43.401L100.768 43.4481C100.293 43.4925 99.9493 43.6423 99.7384 43.8947C99.5276 44.1472 99.4222 44.4606 99.4222 44.8323V47.4704H98.6538V42.8517H99.4028V43.659C99.6608 43.1208 100.171 42.8212 100.931 42.7574L101.206 42.738L101.27 43.401Z" fill="white"/>
<path d="M109.516 44.6077C109.727 44.8851 109.835 45.2346 109.835 45.6507C109.835 46.2388 109.641 46.6881 109.256 47.0016C108.87 47.3151 108.324 47.4704 107.614 47.4704H104.826V40.7823H107.511C108.199 40.7823 108.734 40.9349 109.114 41.2373C109.494 41.5396 109.683 41.9696 109.683 42.5272C109.683 42.8878 109.589 43.1985 109.403 43.4565C109.217 43.7172 108.956 43.9086 108.62 44.0362C109.006 44.1389 109.303 44.3275 109.516 44.6077ZM105.594 43.7533H107.397C107.896 43.7533 108.274 43.6506 108.532 43.4509C108.787 43.2484 108.915 42.9544 108.915 42.5688C108.915 41.8087 108.41 41.4314 107.397 41.4314H105.594V43.7533ZM108.701 46.5356C108.951 46.3414 109.075 46.0418 109.075 45.6285C109.075 44.8074 108.562 44.3968 107.539 44.3968H105.594V46.8241H107.539C108.063 46.8268 108.451 46.7297 108.701 46.5356Z" fill="white"/>
<path d="M111.237 47.4704V40.7823H112.005V47.4704H111.237Z" fill="white"/>
<path d="M114.335 47.2429C114.002 47.046 113.747 46.7658 113.566 46.4024C113.386 46.039 113.297 45.6174 113.297 45.1375C113.297 44.6576 113.386 44.2359 113.566 43.8698C113.747 43.5064 114.002 43.2262 114.335 43.0293C114.668 42.8323 115.051 42.7352 115.486 42.7352C115.922 42.7352 116.307 42.8323 116.643 43.0293C116.978 43.2262 117.236 43.5064 117.417 43.8698C117.597 44.2332 117.686 44.6548 117.686 45.1375C117.686 45.6202 117.597 46.039 117.417 46.4024C117.236 46.7658 116.978 47.046 116.643 47.2429C116.307 47.4399 115.922 47.537 115.486 47.537C115.051 47.537 114.665 47.4399 114.335 47.2429ZM116.535 46.4523C116.779 46.1528 116.901 45.7145 116.901 45.1375C116.901 44.5744 116.779 44.1388 116.532 43.8337C116.285 43.5258 115.938 43.3732 115.489 43.3732C115.039 43.3732 114.693 43.5258 114.446 43.8337C114.199 44.1416 114.077 44.5744 114.077 45.1375C114.077 45.7061 114.199 46.1417 114.443 46.4468C114.687 46.7492 115.037 46.9017 115.492 46.9017C115.946 46.9017 116.29 46.7519 116.535 46.4523Z" fill="white"/>
<path d="M119.736 47.2429C119.401 47.046 119.143 46.7714 118.962 46.4135C118.782 46.0557 118.693 45.6368 118.693 45.1569C118.693 44.677 118.788 44.2554 118.974 43.8892C119.159 43.5258 119.423 43.2429 119.761 43.0404C120.1 42.8379 120.496 42.738 120.951 42.738C121.262 42.738 121.564 42.7935 121.861 42.9044C122.158 43.0154 122.399 43.1624 122.582 43.3455L122.327 43.9142C121.892 43.5591 121.448 43.3816 120.999 43.3816C120.524 43.3816 120.155 43.5369 119.889 43.8476C119.623 44.1583 119.489 44.5938 119.489 45.1569C119.489 45.7145 119.623 46.1444 119.889 46.4468C120.155 46.7492 120.524 46.9017 120.999 46.9017C121.448 46.9017 121.889 46.7242 122.327 46.3691L122.582 46.9378C122.386 47.1209 122.139 47.2679 121.842 47.3733C121.545 47.4787 121.237 47.5342 120.921 47.5342C120.466 47.537 120.072 47.4399 119.736 47.2429Z" fill="white"/>
<path d="M127.761 47.4704H126.765L124.413 45.2595V47.4704H123.645V40.7823H124.413V44.9461L126.566 42.86H127.542L125.248 45.0709L127.761 47.4704Z" fill="white"/>
<path d="M129.204 47.2429C128.868 47.046 128.61 46.7714 128.43 46.4135C128.249 46.0557 128.161 45.6368 128.161 45.1569C128.161 44.677 128.255 44.2554 128.441 43.8892C128.627 43.5258 128.89 43.2429 129.229 43.0404C129.567 42.8379 129.964 42.738 130.419 42.738C130.729 42.738 131.032 42.7935 131.329 42.9044C131.625 43.0154 131.867 43.1624 132.05 43.3455L131.795 43.9142C131.359 43.5591 130.915 43.3816 130.466 43.3816C129.991 43.3816 129.623 43.5369 129.356 43.8476C129.09 44.1583 128.957 44.5938 128.957 45.1569C128.957 45.7145 129.09 46.1444 129.356 46.4468C129.623 46.7492 129.991 46.9017 130.466 46.9017C130.915 46.9017 131.356 46.7242 131.795 46.3691L132.05 46.9378C131.853 47.1209 131.606 47.2679 131.309 47.3733C131.012 47.4787 130.704 47.5342 130.388 47.5342C129.933 47.537 129.537 47.4399 129.204 47.2429Z" fill="white"/>
<path d="M137.096 44.5688V47.4704H136.327V44.616C136.327 44.186 136.244 43.8725 136.075 43.6756C135.908 43.4786 135.639 43.3816 135.273 43.3816C134.849 43.3816 134.51 43.5119 134.258 43.7699C134.005 44.0279 133.878 44.3802 133.878 44.8212V47.4676H133.109V40.7796H133.878V43.5868C134.03 43.3094 134.238 43.0958 134.507 42.9516C134.777 42.8073 135.084 42.7324 135.431 42.7324C136.541 42.738 137.096 43.3483 137.096 44.5688Z" fill="white"/>
<path d="M141.822 43.1874C142.111 43.487 142.255 43.9447 142.255 44.5577V47.4704H141.506V46.6826C141.387 46.9544 141.204 47.1653 140.957 47.3123C140.71 47.4621 140.424 47.5342 140.103 47.5342C139.806 47.5342 139.531 47.4732 139.282 47.3539C139.032 47.2346 138.835 47.0654 138.688 46.8518C138.544 46.6382 138.469 46.3996 138.469 46.1417C138.469 45.7949 138.558 45.5231 138.735 45.3317C138.913 45.1403 139.204 44.9988 139.609 44.9156C140.014 44.8296 140.577 44.788 141.298 44.788H141.506V44.4745C141.506 44.0889 141.426 43.8088 141.27 43.634C141.112 43.4592 140.857 43.3732 140.502 43.3732C139.969 43.3732 139.442 43.5369 138.918 43.867L138.663 43.3067C138.904 43.1347 139.193 42.9987 139.531 42.8933C139.87 42.7879 140.197 42.738 140.513 42.738C141.096 42.738 141.534 42.8878 141.822 43.1874ZM141.14 46.5467C141.384 46.2915 141.506 45.9614 141.506 45.5564V45.2817H141.334C140.777 45.2817 140.355 45.3039 140.064 45.3539C139.773 45.401 139.567 45.4815 139.442 45.5896C139.32 45.7006 139.257 45.8643 139.257 46.0779C139.257 46.3248 139.348 46.5272 139.526 46.6909C139.706 46.8518 139.931 46.9323 140.202 46.9323C140.585 46.9295 140.896 46.8019 141.14 46.5467Z" fill="white"/>
<path d="M143.714 40.8489H144.644V41.7116H143.714V40.8489ZM143.792 47.4704V42.8517H144.56V47.4704H143.792Z" fill="white"/>
<path d="M150.108 44.5688V47.4704H149.34V44.616C149.34 44.186 149.257 43.8725 149.087 43.6756C148.921 43.4786 148.652 43.3816 148.286 43.3816C147.861 43.3816 147.523 43.5119 147.271 43.7699C147.018 44.0279 146.89 44.3802 146.89 44.8212V47.4676H146.122V42.8517H146.882V43.6118C147.035 43.3261 147.246 43.1097 147.517 42.9627C147.789 42.8129 148.1 42.7408 148.447 42.7408C149.553 42.738 150.108 43.3483 150.108 44.5688Z" fill="white"/>
<path d="M153.939 46.9406L154.195 46.3719C154.442 46.5689 154.691 46.7076 154.949 46.7935C155.204 46.8795 155.496 46.9211 155.817 46.9211C156.159 46.9211 156.419 46.8629 156.6 46.7464C156.78 46.6299 156.869 46.4607 156.869 46.2388C156.869 46.0557 156.808 45.9114 156.688 45.8032C156.569 45.6951 156.369 45.6118 156.092 45.548L155.315 45.3677C154.924 45.279 154.622 45.1264 154.414 44.9128C154.206 44.6992 154.1 44.4329 154.1 44.1167C154.1 43.7061 154.261 43.3732 154.583 43.1208C154.905 42.8684 155.335 42.7408 155.873 42.7408C156.195 42.7408 156.503 42.7935 156.794 42.8961C157.085 43.0015 157.329 43.1513 157.523 43.3455L157.268 43.9058C156.844 43.5452 156.381 43.3649 155.873 43.3649C155.551 43.3649 155.299 43.4259 155.118 43.5508C154.938 43.6756 154.849 43.8476 154.849 44.0667C154.849 44.2498 154.905 44.3968 155.016 44.5078C155.127 44.6187 155.304 44.702 155.551 44.7602L156.339 44.9489C156.769 45.0515 157.088 45.2041 157.296 45.4093C157.504 45.6146 157.609 45.8809 157.609 46.211C157.609 46.616 157.446 46.9378 157.121 47.1791C156.797 47.4205 156.35 47.5397 155.79 47.5397C155.013 47.537 154.394 47.3372 153.939 46.9406Z" fill="white"/>
<path d="M161.31 46.8934L161.271 47.5009C161.127 47.5259 160.969 47.5397 160.797 47.5397C160.239 47.5397 159.82 47.3955 159.54 47.1042C159.26 46.813 159.118 46.408 159.118 45.8892V43.462H158.217V42.8545H159.118V41.4509H159.887V42.8545H161.196V43.462H159.887V45.8337C159.887 46.5605 160.222 46.9239 160.891 46.9239C161.032 46.9211 161.171 46.9101 161.31 46.8934Z" fill="white"/>
<path d="M165.412 43.1874C165.701 43.487 165.845 43.9447 165.845 44.5577V47.4704H165.096V46.6826C164.977 46.9544 164.794 47.1653 164.547 47.3123C164.3 47.4621 164.014 47.5342 163.692 47.5342C163.396 47.5342 163.121 47.4732 162.871 47.3539C162.622 47.2346 162.425 47.0654 162.278 46.8518C162.133 46.6382 162.059 46.3996 162.059 46.1417C162.059 45.7949 162.147 45.5231 162.325 45.3317C162.502 45.1403 162.794 44.9988 163.199 44.9156C163.604 44.8296 164.167 44.788 164.888 44.788H165.096V44.4745C165.096 44.0889 165.016 43.8088 164.86 43.634C164.702 43.4592 164.447 43.3732 164.092 43.3732C163.559 43.3732 163.032 43.5369 162.508 43.867L162.253 43.3067C162.494 43.1347 162.783 42.9987 163.121 42.8933C163.459 42.7879 163.787 42.738 164.103 42.738C164.686 42.738 165.124 42.8878 165.412 43.1874ZM164.73 46.5467C164.974 46.2915 165.096 45.9614 165.096 45.5564V45.2817H164.924C164.367 45.2817 163.945 45.3039 163.654 45.3539C163.362 45.401 163.157 45.4815 163.032 45.5896C162.91 45.7006 162.846 45.8643 162.846 46.0779C162.846 46.3248 162.938 46.5272 163.115 46.6909C163.296 46.8518 163.52 46.9323 163.792 46.9323C164.175 46.9295 164.486 46.8019 164.73 46.5467Z" fill="white"/>
<path d="M169.998 43.401L169.496 43.4481C169.022 43.4925 168.678 43.6423 168.467 43.8947C168.256 44.1472 168.148 44.4606 168.148 44.8323V47.4704H167.379V42.8517H168.128V43.659C168.386 43.1208 168.897 42.8212 169.657 42.7574L169.931 42.738L169.998 43.401Z" fill="white"/>
<path d="M173.679 46.8934L173.64 47.5009C173.496 47.5259 173.338 47.5397 173.166 47.5397C172.608 47.5397 172.189 47.3955 171.909 47.1042C171.629 46.813 171.487 46.408 171.487 45.8892V43.462H170.586V42.8545H171.487V41.4509H172.256V42.8545H173.565V43.462H172.256V45.8337C172.256 46.5605 172.592 46.9239 173.26 46.9239C173.402 46.9211 173.54 46.9101 173.679 46.8934Z" fill="white"/>
<path d="M178.478 42.8517V47.4704H177.729V46.6826C177.585 46.96 177.379 47.1736 177.116 47.3178C176.852 47.4621 176.558 47.537 176.228 47.537C175.679 47.537 175.263 47.3844 174.985 47.0765C174.708 46.7686 174.569 46.3164 174.569 45.7145V42.8517H175.338V45.6978C175.338 46.1084 175.421 46.4107 175.585 46.6049C175.748 46.7991 176.009 46.8934 176.361 46.8934C176.766 46.8934 177.091 46.763 177.338 46.4995C177.585 46.236 177.707 45.892 177.707 45.462V42.8545H178.478V42.8517Z" fill="white"/>
<path d="M183.438 43.0404C183.749 43.2429 183.987 43.5258 184.159 43.8892C184.331 44.2526 184.414 44.6742 184.414 45.1569C184.414 45.6396 184.328 46.0557 184.159 46.4135C183.987 46.7714 183.749 47.0488 183.443 47.2429C183.135 47.4399 182.778 47.537 182.367 47.537C182.006 47.537 181.693 47.4565 181.424 47.3012C181.155 47.1431 180.95 46.9184 180.811 46.6271V49.1792H180.042V42.8517H180.811V43.6479C180.95 43.3566 181.155 43.1319 181.424 42.9738C181.693 42.8157 182.006 42.738 182.367 42.738C182.772 42.738 183.13 42.8379 183.438 43.0404ZM183.258 46.4468C183.504 46.1444 183.626 45.7145 183.626 45.1569C183.626 44.5993 183.502 44.1666 183.258 43.8531C183.011 43.5397 182.664 43.3843 182.215 43.3843C181.765 43.3843 181.418 43.5369 181.177 43.8393C180.933 44.1416 180.811 44.5771 180.811 45.1375C180.811 45.7006 180.933 46.1361 181.177 46.4413C181.421 46.7464 181.768 46.9017 182.215 46.9017C182.664 46.9017 183.013 46.7492 183.258 46.4468Z" fill="white"/>
<path d="M185.413 46.9406L185.668 46.3719C185.915 46.5689 186.165 46.7076 186.423 46.7935C186.678 46.8795 186.969 46.9211 187.291 46.9211C187.632 46.9211 187.893 46.8629 188.073 46.7464C188.254 46.6299 188.342 46.4607 188.342 46.2388C188.342 46.0557 188.281 45.9114 188.162 45.8032C188.043 45.6951 187.843 45.6118 187.566 45.548L186.789 45.3677C186.398 45.279 186.095 45.1264 185.887 44.9128C185.679 44.6992 185.574 44.4329 185.574 44.1167C185.574 43.7061 185.735 43.3732 186.057 43.1208C186.378 42.8684 186.808 42.7408 187.347 42.7408C187.668 42.7408 187.976 42.7935 188.268 42.8961C188.559 43.0015 188.803 43.1513 188.997 43.3455L188.742 43.9058C188.317 43.5452 187.854 43.3649 187.347 43.3649C187.025 43.3649 186.772 43.4259 186.592 43.5508C186.412 43.6756 186.323 43.8476 186.323 44.0667C186.323 44.2498 186.378 44.3968 186.489 44.5078C186.6 44.6187 186.778 44.702 187.025 44.7602L187.813 44.9489C188.243 45.0515 188.562 45.2041 188.77 45.4093C188.978 45.6146 189.083 45.8809 189.083 46.211C189.083 46.616 188.919 46.9378 188.595 47.1791C188.27 47.4205 187.824 47.5397 187.263 47.5397C186.484 47.537 185.868 47.3372 185.413 46.9406Z" fill="white"/>
</g>
<defs>
<clipPath id="clip0">
<rect width="192.42" height="53.0718" fill="white" transform="translate(0 0.631744)"/>
</clipPath>
</defs>
</svg>
